<svg version="1.0" xmlns="http://www.w3.org/2000/svg" viewBox="0 0 512 512">
    <g transform="translate(0.000000,512.000000) scale(0.100000,-0.100000)"
        fill="#000000" stroke="none">
        <path
            d="M2890 5106 c-110 -31 -215 -114 -276 -220 -20 -32 -107 -248 -196
-480 -88 -232 -178 -457 -200 -501 -131 -268 -466 -610 -920 -942 l-126 -93
-529 0 -530 0 -33 -22 c-18 -13 -43 -36 -54 -51 l-21 -28 0 -1164 0 -1164 21
-28 c12 -15 36 -37 55 -48 33 -19 57 -20 589 -25 l555 -5 90 -36 c213 -86 563
-179 854 -229 358 -60 550 -70 1381 -70 796 0 789 0 910 67 110 62 201 169
248 293 39 103 31 270 -19 378 -28 63 -29 67 -12 79 107 71 177 143 221 228
74 146 69 352 -12 492 l-24 42 53 42 c147 117 223 308 196 490 -20 135 -121
296 -223 357 l-27 15 29 56 c43 87 60 156 60 251 0 104 -18 173 -70 260 -66
113 -182 204 -310 246 -50 16 -112 18 -656 22 l-601 3 24 117 c31 154 88 498
105 637 7 62 13 212 13 345 -1 211 -3 244 -23 325 -30 118 -61 183 -113 240
-98 106 -289 160 -429 121z m177 -307 c63 -24 88 -136 87 -384 -1 -293 -52
-660 -155 -1106 -23 -96 -30 -147 -25 -173 9 -48 58 -103 104 -116 24 -6 287
-10 717 -10 638 0 682 -2 720 -19 136 -62 178 -231 84 -344 -39 -48 -93 -75
-168 -85 -32 -5 -71 -16 -86 -26 -65 -43 -86 -142 -42 -207 37 -56 76 -69 202
-69 124 0 166 -9 214 -44 136 -101 121 -300 -28 -378 -50 -26 -61 -28 -175
-28 -99 0 -128 -3 -156 -19 -53 -28 -80 -74 -80 -138 0 -48 4 -58 38 -93 33
-35 46 -42 114 -54 118 -23 158 -50 197 -136 44 -96 11 -211 -77 -273 l-47
-32 -170 -6 c-95 -3 -179 -10 -190 -16 -47 -26 -78 -71 -83 -121 -9 -99 42
-153 161 -172 123 -19 194 -89 204 -200 9 -98 -33 -176 -121 -223 -41 -22 -45
-22 -656 -25 -805 -4 -1092 9 -1436 68 -239 41 -528 116 -744 192 l-95 34 -3
1021 -2 1022 87 63 c386 277 775 656 949 923 83 128 112 195 288 655 106 276
177 448 194 470 52 64 102 78 179 49z m-1999 -3191 l2 -958 -380 0 -380 0 0
960 0 960 378 -2 377 -3 3 -957z" />
    </g>
</svg>